<svg width="26" height="23" viewBox="0 0 26 23" fill="none" xmlns="http://www.w3.org/2000/svg">
<path d="M17.4 22.4999H8.5C4.1 22.4999 0.5 18.9999 0.5 14.6999V14.1999C0.5 9.8999 4.1 6.3999 8.5 6.3999H12.6C15.3 6.3999 17.5 8.5999 17.5 11.1999C17.5 13.8999 15.3 15.9999 12.6 15.9999H7.9C7 15.9999 6.3 15.2999 6.3 14.3999C6.3 13.4999 7 12.7999 7.9 12.7999H12.6C13.6 12.7999 14.3 11.9999 14.3 11.0999C14.3 10.1999 13.5 9.3999 12.6 9.3999H8.5C5.9 9.3999 3.7 11.4999 3.7 14.0999V14.5999C3.7 17.1999 5.8 19.2999 8.5 19.2999H17.3C18.2 19.2999 18.9 19.9999 18.9 20.8999C18.9 21.7999 18.2 22.4999 17.4 22.4999Z" fill="url(#paint0_linear_1_8491)"/>
<path d="M22.4 22.5C21.6 22.5 20.9 21.8 20.9 21V8C20.9 5.2 18.6 3 15.9 3H2.09998C1.29998 3 0.599976 2.3 0.599976 1.5C0.599976 0.7 1.29998 0 2.09998 0H15.9C20.3 0 23.9 3.6 23.9 8V21C23.9 21.8 23.2 22.5 22.4 22.5Z" fill="url(#paint1_linear_1_8491)"/>
<defs>
<linearGradient id="paint0_linear_1_8491" x1="27.4459" y1="-4.9382" x2="1.5137" y2="26.3849" gradientUnits="userSpaceOnUse">
<stop offset="0.0537255" stop-color="#00DE8E"/>
<stop offset="1" stop-color="#00A7FF"/>
</linearGradient>
<linearGradient id="paint1_linear_1_8491" x1="25.8918" y1="20.0407" x2="6.12758" y2="-3.8163" gradientUnits="userSpaceOnUse">
<stop offset="0.0537255" stop-color="#00DE8E"/>
<stop offset="1" stop-color="#00A7FF"/>
</linearGradient>
</defs>
</svg>
